<svg xmlns="http://www.w3.org/2000/svg" viewBox="0 0 512 512" fill="none">
	<defs>
		<linearGradient id="om-bg" x1="62" y1="50" x2="454" y2="462" gradientUnits="userSpaceOnUse">
			<stop offset="0" stop-color="#2563eb" />
			<stop offset="0.55" stop-color="#0ea5e9" />
			<stop offset="1" stop-color="#14b8a6" />
		</linearGradient>
		<linearGradient id="om-card" x1="132" y1="116" x2="392" y2="406" gradientUnits="userSpaceOnUse">
			<stop offset="0" stop-color="#ffffff" />
			<stop offset="1" stop-color="#e8f6ff" />
		</linearGradient>
		<linearGradient id="om-line" x1="182" y1="230" x2="335" y2="332" gradientUnits="userSpaceOnUse">
			<stop offset="0" stop-color="#2563eb" />
			<stop offset="1" stop-color="#0d9488" />
		</linearGradient>
		<filter id="om-shadow" x="18" y="20" width="476" height="476" color-interpolation-filters="sRGB" filterUnits="userSpaceOnUse">
			<feDropShadow dx="0" dy="12" stdDeviation="14" flood-color="#0f172a" flood-opacity="0.24" />
		</filter>
		<filter id="om-inner" x="103" y="96" width="306" height="330" color-interpolation-filters="sRGB" filterUnits="userSpaceOnUse">
			<feDropShadow dx="0" dy="8" stdDeviation="8" flood-color="#1d4ed8" flood-opacity="0.12" />
		</filter>
	</defs>

	<g filter="url(#om-shadow)">
		<rect x="34" y="34" width="444" height="444" rx="116" fill="url(#om-bg)" />
		<path d="M430 110l10 22 22 10-22 10-10 22-10-22-22-10 22-10 10-22z" fill="#ecfeff" opacity="0.92" />
	</g>

	<g filter="url(#om-inner)">
		<path
			d="M155 108h153l81 81v205c0 19.882-16.118 36-36 36H155c-19.882 0-36-16.118-36-36V144c0-19.882 16.118-36 36-36z"
			fill="url(#om-card)"
		/>
		<path d="M308 108v57c0 19.882 16.118 36 36 36h45" fill="#c9ebff" />
	</g>

	<rect x="173" y="218" width="168" height="13" rx="6.5" fill="#b8dcf6" />
	<rect x="173" y="252" width="134" height="13" rx="6.5" fill="#b8dcf6" />

	<path d="M193 334h34l29-29h56l34-34" stroke="url(#om-line)" stroke-width="13" stroke-linecap="round" stroke-linejoin="round" />
	<circle cx="193" cy="334" r="21" fill="#2563eb" />
	<circle cx="256" cy="305" r="21" fill="#0ea5e9" />
	<circle cx="312" cy="305" r="21" fill="#22c7aa" />
	<circle cx="346" cy="271" r="21" fill="#0d9488" />

	<circle cx="193" cy="334" r="9" fill="#f8fafc" opacity="0.95" />
	<circle cx="256" cy="305" r="9" fill="#f8fafc" opacity="0.95" />
	<circle cx="312" cy="305" r="9" fill="#f8fafc" opacity="0.95" />
	<circle cx="346" cy="271" r="9" fill="#f8fafc" opacity="0.95" />
</svg>
